M48
;Layer_Color=9474304
;FILE_FORMAT=2:4
INCH,TZ
;TYPE=PLATED
T1F00S00C0.0197
T2F00S00C0.0394
T3F00S00C0.0400
T4F00S00C0.0472
T5F00S00C0.0591
%
T01
X-20591Y24000
X-20000
T02
X-24000Y1016
X-23000
X-22000
X-21000
X-20000
X-19000
X-18000
X-15500Y4500
X-13500Y4492
X-11508Y4500
X-11500Y2500
Y1000
X-8154
X-8547Y2500
X-9500Y4500
X-7500Y4492
X-5500Y4000
Y5000
X-6000Y1500
X-5000
X-4000
X-1000Y2000
Y3000
X-2500Y5654
Y9000
X-4500Y9654
Y13000
X-5500Y7000
Y6000
X-4500Y20500
X-3500
X-1000Y18539
X-7500Y17346
Y14000
X-9000Y13500
X-10000
X-11000
X-12000
X-13000
X-14000
X-14500Y12500
X-15500
X-16500
X-17500
X-18500
X-19500
X-20500
X-21500
Y9500
X-20500
X-19500
X-18500
X-17500
X-16500
X-15500
X-14500
X-13500
X-12500
X-11500
X-10500
X-8500Y10500
X-7500
X-6500
Y11500
X-7500
X-8500
X-10500Y12500
X-11500
X-12500
X-13500
X-13000Y16000
X-12000
X-11000
X-10000
Y18500
X-11000
X-12000
X-13000
X-12900Y20300
X-9554
X-16000Y19046
Y15700
X-18000Y16000
Y15000
X-20500
Y16000
X-20000Y7000
X-19000
X-18000
X-15500Y6508
X-13500Y6500
X-11508Y7000
X-9500
X-7500Y6500
X-21000Y7000
X-22000
X-23000
X-24000
X-23500Y9500
X-22500
Y12500
X-23500
X-11500Y22000
Y24000
X-8154
Y22000
X-6500Y22500
Y23500
X-4000
Y22500
X-1000Y23500
T03
X-21000Y18750
X-20000
X-22000
X-23000
Y22500
X-22000
X-21000
X-20000
T04
X-23000Y8300
Y16174
T05
X-21000Y2350
X-18992
Y5500
X-21000
M30
