G04*
G04 #@! TF.GenerationSoftware,Altium Limited,Altium Designer,21.7.2 (23)*
G04*
G04 Layer_Color=8388736*
%FSLAX25Y25*%
%MOIN*%
G70*
G04*
G04 #@! TF.SameCoordinates,5A2C8144-CC96-4660-950F-F598549C9966*
G04*
G04*
G04 #@! TF.FilePolarity,Negative*
G04*
G01*
G75*
%ADD12C,0.10249*%
%ADD13C,0.08674*%
%ADD14R,0.08674X0.08674*%
%ADD15C,0.09855*%
%ADD16R,0.12611X0.12611*%
%ADD17C,0.12611*%
%ADD18C,0.05524*%
%ADD19C,0.08800*%
%ADD20R,0.08800X0.08800*%
%ADD21R,0.08674X0.08674*%
D12*
X19437Y83098D02*
D03*
Y161839D02*
D03*
D13*
X169000Y19000D02*
D03*
X135535D02*
D03*
X120000Y23000D02*
D03*
X90000D02*
D03*
X239437Y235098D02*
D03*
Y185492D02*
D03*
X19437Y10256D02*
D03*
X29437D02*
D03*
X39437D02*
D03*
X49437D02*
D03*
X59437D02*
D03*
X69437D02*
D03*
X9437Y70098D02*
D03*
X19437D02*
D03*
X29437D02*
D03*
X39437D02*
D03*
X49437D02*
D03*
X59437D02*
D03*
X69437D02*
D03*
X174437Y115098D02*
D03*
X164437D02*
D03*
X184437Y105098D02*
D03*
X174437D02*
D03*
X164437D02*
D03*
X144437Y125098D02*
D03*
X134437D02*
D03*
X124437D02*
D03*
X114437D02*
D03*
X104437D02*
D03*
X94437D02*
D03*
X84437D02*
D03*
X74437D02*
D03*
X64437D02*
D03*
X54437D02*
D03*
X44437D02*
D03*
X34437D02*
D03*
X24437D02*
D03*
X14437D02*
D03*
X144437Y95098D02*
D03*
X134437D02*
D03*
X124437D02*
D03*
X114437D02*
D03*
X104437D02*
D03*
X94437D02*
D03*
X84437D02*
D03*
X74437D02*
D03*
X64437D02*
D03*
X54437D02*
D03*
X44437D02*
D03*
X34437D02*
D03*
X24437D02*
D03*
X114437Y45020D02*
D03*
Y65098D02*
D03*
X154437Y45098D02*
D03*
X134358D02*
D03*
X174437Y45020D02*
D03*
Y65098D02*
D03*
X94437Y45098D02*
D03*
Y65177D02*
D03*
X224437Y90098D02*
D03*
Y56634D02*
D03*
X151947Y209000D02*
D03*
Y242465D02*
D03*
X89437Y190563D02*
D03*
Y157098D02*
D03*
X130473Y208535D02*
D03*
Y242000D02*
D03*
X109000Y208535D02*
D03*
Y242000D02*
D03*
X204437Y96634D02*
D03*
Y130098D02*
D03*
X175631Y140098D02*
D03*
Y173563D02*
D03*
X137000Y164000D02*
D03*
X127000D02*
D03*
X117000D02*
D03*
X214437Y205098D02*
D03*
X204437D02*
D03*
X194437Y40098D02*
D03*
Y50098D02*
D03*
Y60098D02*
D03*
X149000Y195000D02*
D03*
X139000D02*
D03*
X129000D02*
D03*
X119000D02*
D03*
X159000Y145000D02*
D03*
X149000D02*
D03*
X139000D02*
D03*
X129000D02*
D03*
X119000D02*
D03*
X209437Y15098D02*
D03*
X199437D02*
D03*
X239437Y30098D02*
D03*
Y20098D02*
D03*
X44437Y150098D02*
D03*
Y160098D02*
D03*
X69437Y150098D02*
D03*
Y160098D02*
D03*
X209437Y235098D02*
D03*
Y225098D02*
D03*
X184437Y235098D02*
D03*
Y225098D02*
D03*
D14*
X9437Y10256D02*
D03*
X184437Y115098D02*
D03*
X14437Y95098D02*
D03*
X147000Y164000D02*
D03*
X109000Y145000D02*
D03*
X189437Y15098D02*
D03*
D15*
X134358Y70098D02*
D03*
X154437D02*
D03*
D16*
X39437Y23602D02*
D03*
D17*
X59516D02*
D03*
X39437Y55098D02*
D03*
X59516D02*
D03*
D18*
X43532Y240098D02*
D03*
X49437D02*
D03*
D19*
X19437Y187598D02*
D03*
X29437D02*
D03*
X39437D02*
D03*
X49437D02*
D03*
X19437Y225098D02*
D03*
X29437D02*
D03*
X39437D02*
D03*
D20*
X49437D02*
D03*
D21*
X194437Y70098D02*
D03*
M02*
