G04*
G04 #@! TF.GenerationSoftware,Altium Limited,Altium Designer,21.7.2 (23)*
G04*
G04 Layer_Color=65535*
%FSLAX25Y25*%
%MOIN*%
G70*
G04*
G04 #@! TF.SameCoordinates,C51BEDBB-060F-461C-9832-C8CE4485BB52*
G04*
G04*
G04 #@! TF.FilePolarity,Positive*
G04*
G01*
G75*
%ADD10C,0.00787*%
%ADD11C,0.01000*%
D10*
X-195928Y240000D02*
X-196000Y241000D01*
X-196213Y241979D01*
X-196563Y242918D01*
X-197044Y243798D01*
X-197644Y244600D01*
X-198353Y245309D01*
X-199155Y245909D01*
X-200035Y246390D01*
X-200974Y246740D01*
X-201953Y246953D01*
X-202953Y247024D01*
X-203952Y246953D01*
X-204932Y246740D01*
X-205871Y246390D01*
X-206750Y245909D01*
X-207553Y245309D01*
X-208261Y244600D01*
X-208862Y243798D01*
X-209342Y242918D01*
X-209693Y241979D01*
X-209906Y241000D01*
X-209977Y240000D01*
X-209906Y239000D01*
X-209693Y238021D01*
X-209342Y237082D01*
X-208862Y236202D01*
X-208261Y235400D01*
X-207553Y234691D01*
X-206750Y234091D01*
X-205871Y233611D01*
X-204932Y233260D01*
X-203952Y233047D01*
X-202953Y232976D01*
X-201953Y233047D01*
X-200974Y233260D01*
X-200035Y233611D01*
X-199155Y234091D01*
X-198353Y234691D01*
X-197644Y235400D01*
X-197044Y236202D01*
X-196563Y237082D01*
X-196213Y238021D01*
X-196000Y239000D01*
X-195928Y240000D01*
X-60000Y112500D02*
X-60957Y112310D01*
X-61768Y111768D01*
X-62310Y110957D01*
X-62500Y110000D01*
X-62310Y109043D01*
X-61768Y108232D01*
X-60957Y107690D01*
X-60000Y107500D01*
X-95000Y60158D02*
X-94004Y60208D01*
X-93019Y60359D01*
X-92054Y60609D01*
X-91119Y60955D01*
X-90223Y61394D01*
X-89377Y61922D01*
X-88589Y62532D01*
X-87866Y63219D01*
X-87217Y63975D01*
X-86647Y64794D01*
X-86163Y65665D01*
X-85770Y66582D01*
X-85472Y67533D01*
X-85271Y68510D01*
X-85170Y69502D01*
Y70499D01*
X-85271Y71490D01*
X-85472Y72467D01*
X-85770Y73418D01*
X-86163Y74335D01*
X-86647Y75206D01*
X-87217Y76025D01*
X-87866Y76781D01*
X-88589Y77468D01*
X-89377Y78078D01*
X-90223Y78606D01*
X-91119Y79045D01*
X-92054Y79391D01*
X-93019Y79641D01*
X-94004Y79792D01*
X-95000Y79843D01*
X-115079D02*
X-116075Y79792D01*
X-117060Y79641D01*
X-118025Y79391D01*
X-118960Y79045D01*
X-119855Y78606D01*
X-120702Y78078D01*
X-121490Y77468D01*
X-122213Y76781D01*
X-122862Y76025D01*
X-123432Y75206D01*
X-123915Y74335D01*
X-124309Y73418D01*
X-124607Y72467D01*
X-124808Y71490D01*
X-124909Y70499D01*
Y69502D01*
X-124808Y68510D01*
X-124607Y67533D01*
X-124309Y66582D01*
X-123915Y65665D01*
X-123432Y64794D01*
X-122862Y63975D01*
X-122213Y63219D01*
X-121490Y62532D01*
X-120701Y61922D01*
X-119855Y61394D01*
X-118960Y60955D01*
X-118025Y60609D01*
X-117060Y60359D01*
X-116075Y60208D01*
X-115079Y60158D01*
X-220039Y34232D02*
X-219060Y34329D01*
X-218118Y34614D01*
X-217251Y35078D01*
X-216490Y35702D01*
X-215866Y36463D01*
X-215402Y37331D01*
X-215116Y38273D01*
X-215020Y39252D01*
X-215116Y40231D01*
X-215402Y41173D01*
X-215866Y42041D01*
X-216490Y42801D01*
X-217251Y43426D01*
X-218118Y43890D01*
X-219060Y44175D01*
X-220039Y44272D01*
X-240000Y107500D02*
X-239043Y107690D01*
X-238232Y108232D01*
X-237690Y109043D01*
X-237500Y110000D01*
X-237690Y110957D01*
X-238232Y111768D01*
X-239043Y112310D01*
X-240000Y112500D01*
X-245000Y37579D02*
X-244043Y37769D01*
X-243232Y38311D01*
X-242690Y39122D01*
X-242500Y40079D01*
X-242690Y41035D01*
X-243232Y41846D01*
X-244043Y42388D01*
X-245000Y42579D01*
X-125157Y65000D02*
X-125208Y65996D01*
X-125359Y66981D01*
X-125609Y67946D01*
X-125955Y68881D01*
X-126394Y69777D01*
X-126922Y70623D01*
X-127532Y71411D01*
X-128219Y72134D01*
X-128975Y72783D01*
X-129794Y73353D01*
X-130665Y73837D01*
X-131582Y74230D01*
X-132533Y74528D01*
X-133510Y74729D01*
X-134502Y74830D01*
X-135498D01*
X-136490Y74729D01*
X-137467Y74528D01*
X-138418Y74230D01*
X-139335Y73837D01*
X-140206Y73353D01*
X-141025Y72783D01*
X-141781Y72134D01*
X-142468Y71411D01*
X-143078Y70623D01*
X-143606Y69777D01*
X-144045Y68881D01*
X-144391Y67946D01*
X-144641Y66981D01*
X-144792Y65996D01*
X-144843Y65000D01*
Y44921D02*
X-144792Y43925D01*
X-144641Y42940D01*
X-144391Y41975D01*
X-144045Y41040D01*
X-143606Y40145D01*
X-143078Y39298D01*
X-142468Y38510D01*
X-141781Y37788D01*
X-141025Y37138D01*
X-140206Y36568D01*
X-139335Y36085D01*
X-138418Y35691D01*
X-137467Y35393D01*
X-136490Y35192D01*
X-135498Y35091D01*
X-134502D01*
X-133510Y35192D01*
X-132533Y35393D01*
X-131582Y35691D01*
X-130665Y36085D01*
X-129794Y36568D01*
X-128975Y37138D01*
X-128219Y37788D01*
X-127532Y38510D01*
X-126922Y39299D01*
X-126394Y40145D01*
X-125955Y41040D01*
X-125609Y41975D01*
X-125359Y42940D01*
X-125208Y43925D01*
X-125157Y44921D01*
X-115079Y54843D02*
X-116075Y54792D01*
X-117060Y54641D01*
X-118025Y54391D01*
X-118960Y54045D01*
X-119855Y53606D01*
X-120702Y53078D01*
X-121490Y52468D01*
X-122213Y51781D01*
X-122862Y51025D01*
X-123432Y50206D01*
X-123915Y49335D01*
X-124309Y48418D01*
X-124607Y47467D01*
X-124808Y46490D01*
X-124909Y45498D01*
Y44502D01*
X-124808Y43510D01*
X-124607Y42533D01*
X-124309Y41582D01*
X-123915Y40665D01*
X-123432Y39794D01*
X-122862Y38975D01*
X-122213Y38219D01*
X-121490Y37532D01*
X-120701Y36922D01*
X-119855Y36394D01*
X-118960Y35955D01*
X-118025Y35609D01*
X-117060Y35359D01*
X-116075Y35208D01*
X-115079Y35157D01*
X-95000D02*
X-94004Y35208D01*
X-93019Y35359D01*
X-92054Y35609D01*
X-91119Y35955D01*
X-90223Y36394D01*
X-89377Y36922D01*
X-88589Y37532D01*
X-87866Y38219D01*
X-87217Y38975D01*
X-86647Y39794D01*
X-86163Y40665D01*
X-85770Y41582D01*
X-85472Y42533D01*
X-85271Y43510D01*
X-85170Y44502D01*
Y45498D01*
X-85271Y46490D01*
X-85472Y47467D01*
X-85770Y48418D01*
X-86163Y49335D01*
X-86647Y50206D01*
X-87217Y51025D01*
X-87866Y51781D01*
X-88589Y52468D01*
X-89377Y53078D01*
X-90223Y53606D01*
X-91119Y54045D01*
X-92054Y54391D01*
X-93019Y54641D01*
X-94004Y54792D01*
X-95000Y54843D01*
X-65158Y65000D02*
X-65208Y65996D01*
X-65359Y66981D01*
X-65609Y67946D01*
X-65955Y68881D01*
X-66394Y69777D01*
X-66922Y70623D01*
X-67532Y71411D01*
X-68219Y72134D01*
X-68975Y72783D01*
X-69794Y73353D01*
X-70665Y73837D01*
X-71582Y74230D01*
X-72533Y74528D01*
X-73510Y74729D01*
X-74502Y74830D01*
X-75498D01*
X-76490Y74729D01*
X-77467Y74528D01*
X-78418Y74230D01*
X-79335Y73837D01*
X-80206Y73353D01*
X-81025Y72783D01*
X-81781Y72134D01*
X-82468Y71411D01*
X-83078Y70623D01*
X-83606Y69777D01*
X-84045Y68881D01*
X-84391Y67946D01*
X-84641Y66981D01*
X-84792Y65996D01*
X-84842Y65000D01*
Y44921D02*
X-84792Y43925D01*
X-84641Y42940D01*
X-84391Y41975D01*
X-84045Y41040D01*
X-83606Y40145D01*
X-83078Y39298D01*
X-82468Y38510D01*
X-81781Y37788D01*
X-81025Y37138D01*
X-80206Y36568D01*
X-79335Y36085D01*
X-78418Y35691D01*
X-77467Y35393D01*
X-76490Y35192D01*
X-75498Y35091D01*
X-74502D01*
X-73510Y35192D01*
X-72533Y35393D01*
X-71582Y35691D01*
X-70665Y36085D01*
X-69794Y36568D01*
X-68975Y37138D01*
X-68219Y37788D01*
X-67532Y38510D01*
X-66922Y39299D01*
X-66394Y40145D01*
X-65955Y41040D01*
X-65609Y41975D01*
X-65359Y42940D01*
X-65208Y43925D01*
X-65158Y44921D01*
X-145158Y65079D02*
X-145208Y66075D01*
X-145359Y67060D01*
X-145609Y68025D01*
X-145955Y68960D01*
X-146394Y69855D01*
X-146922Y70701D01*
X-147532Y71490D01*
X-148219Y72212D01*
X-148975Y72862D01*
X-149794Y73431D01*
X-150665Y73915D01*
X-151582Y74309D01*
X-152533Y74607D01*
X-153510Y74808D01*
X-154501Y74909D01*
X-155499D01*
X-156490Y74808D01*
X-157467Y74607D01*
X-158418Y74309D01*
X-159335Y73915D01*
X-160206Y73431D01*
X-161025Y72862D01*
X-161781Y72212D01*
X-162468Y71490D01*
X-163078Y70701D01*
X-163606Y69855D01*
X-164045Y68960D01*
X-164391Y68025D01*
X-164641Y67060D01*
X-164792Y66075D01*
X-164842Y65079D01*
Y45000D02*
X-164792Y44004D01*
X-164641Y43019D01*
X-164391Y42053D01*
X-164045Y41118D01*
X-163606Y40223D01*
X-163078Y39377D01*
X-162468Y38589D01*
X-161781Y37866D01*
X-161025Y37217D01*
X-160206Y36647D01*
X-159335Y36163D01*
X-158418Y35770D01*
X-157467Y35472D01*
X-156490Y35271D01*
X-155499Y35170D01*
X-154501D01*
X-153509Y35271D01*
X-152533Y35472D01*
X-151582Y35770D01*
X-150665Y36163D01*
X-149794Y36647D01*
X-148975Y37217D01*
X-148219Y37866D01*
X-147532Y38589D01*
X-146922Y39377D01*
X-146394Y40223D01*
X-145955Y41119D01*
X-145609Y42053D01*
X-145359Y43019D01*
X-145208Y44004D01*
X-145158Y45000D01*
X-145000Y157500D02*
X-144043Y157690D01*
X-143232Y158232D01*
X-142690Y159043D01*
X-142500Y160000D01*
X-142690Y160957D01*
X-143232Y161768D01*
X-144043Y162310D01*
X-145000Y162500D01*
X-65000Y22000D02*
X-35000D01*
Y8133D02*
Y22000D01*
X-65000Y8000D02*
X-36000D01*
X-35000Y8133D01*
X-65000Y8000D02*
Y22000D01*
X-19842Y201831D02*
X-10000D01*
X-19842D02*
Y218563D01*
X-158D01*
Y201831D02*
Y218563D01*
X-10000Y201831D02*
X-158D01*
X-19842Y215676D02*
X-158D01*
X-10000Y218563D02*
Y227126D01*
Y193268D02*
Y201831D01*
X-90000Y99000D02*
X-60000D01*
X-90000D02*
Y121000D01*
X-60000D01*
Y107500D02*
Y121000D01*
Y99000D02*
Y112500D01*
X-54843Y214843D02*
X-45000D01*
X-54843Y195158D02*
Y214843D01*
Y195158D02*
X-45000D01*
X-35000Y214843D02*
X-25157D01*
Y195158D02*
Y214843D01*
X-35000Y195158D02*
X-25157D01*
X-45000Y214843D02*
X-35000D01*
X-45000Y195158D02*
X-35000D01*
X-230000Y144516D02*
X-220158D01*
Y100224D02*
Y144516D01*
X-239843Y100224D02*
X-220158D01*
X-239843D02*
Y144516D01*
X-230000D01*
X-239843Y116629D02*
X-220158D01*
X-230000Y92449D02*
Y100224D01*
Y144516D02*
Y152291D01*
X-115079Y60158D02*
X-95000D01*
X-115079Y79843D02*
X-95000D01*
X-220039Y32697D02*
Y34232D01*
Y44272D02*
Y45807D01*
X-179882D01*
Y32697D02*
Y45807D01*
X-220039Y32697D02*
X-179882D01*
X-240000Y102224D02*
Y107500D01*
Y112500D02*
Y117776D01*
X-100000D01*
Y102224D02*
Y117776D01*
X-240000Y102224D02*
X-100000D01*
X-245000Y17382D02*
X-175000D01*
Y62776D01*
X-245000D02*
X-175000D01*
X-245000Y42579D02*
Y62776D01*
Y17382D02*
Y37579D01*
X-101909Y25000D02*
X-93347D01*
X-107126D02*
X-98563D01*
X-105715Y15157D02*
Y34843D01*
X-101909Y25000D02*
Y34843D01*
X-98563D01*
Y15157D02*
Y34843D01*
X-101909Y15157D02*
X-98563D01*
X-101909D02*
Y25000D01*
X-19842Y36437D02*
X-10000D01*
X-19842Y13563D02*
Y36437D01*
Y13563D02*
X-158D01*
Y36437D01*
X-10000D02*
X-158D01*
X-19842Y30479D02*
X-158D01*
X-10000Y13563D02*
Y22126D01*
Y27874D02*
Y36437D01*
X-205000Y143563D02*
X-195158D01*
Y166437D01*
X-214843D02*
X-195158D01*
X-214843Y143563D02*
Y166437D01*
Y143563D02*
X-205000D01*
X-214843Y149521D02*
X-195158D01*
X-205000Y157874D02*
Y166437D01*
Y143563D02*
Y152126D01*
X-180000Y143563D02*
X-170158D01*
Y166437D01*
X-189842D02*
X-170158D01*
X-189842Y143563D02*
Y166437D01*
Y143563D02*
X-180000D01*
X-189842Y149521D02*
X-170158D01*
X-180000Y157874D02*
Y166437D01*
Y143563D02*
Y152126D01*
X-49843Y241437D02*
X-40000D01*
X-49843Y218563D02*
Y241437D01*
Y218563D02*
X-30158D01*
Y241437D01*
X-40000D02*
X-30158D01*
X-49843Y235479D02*
X-30158D01*
X-40000Y218563D02*
Y227126D01*
Y232874D02*
Y241437D01*
X-74843D02*
X-65000D01*
X-74843Y218563D02*
Y241437D01*
Y218563D02*
X-55158D01*
Y241437D01*
X-65000D02*
X-55158D01*
X-74843Y235479D02*
X-55158D01*
X-65000Y218563D02*
Y227126D01*
Y232874D02*
Y241437D01*
X-34843Y72972D02*
X-25000D01*
X-34843D02*
Y73563D01*
X-15157D01*
Y72972D02*
Y73563D01*
X-25000Y72972D02*
X-15157D01*
X-25000Y73563D02*
Y82126D01*
Y64410D02*
Y72972D01*
X-97972Y158D02*
Y10000D01*
X-98563Y158D02*
X-97972D01*
X-98563D02*
Y19842D01*
X-97972D01*
Y10000D02*
Y19842D01*
X-107126Y10000D02*
X-98563D01*
X-97972D02*
X-89410D01*
X-111972Y193157D02*
Y203000D01*
X-112563Y193157D02*
X-111972D01*
X-112563D02*
Y212842D01*
X-111972D01*
Y203000D02*
Y212842D01*
X-121126Y203000D02*
X-112563D01*
X-111972D02*
X-103409D01*
X-169843Y173437D02*
X-160000D01*
X-169843D02*
Y174028D01*
X-150157D01*
Y173437D02*
Y174028D01*
X-160000Y173437D02*
X-150157D01*
X-160000Y174028D02*
Y182591D01*
Y164874D02*
Y173437D01*
X-97972Y210157D02*
Y220000D01*
X-98563Y210157D02*
X-97972D01*
X-98563D02*
Y229842D01*
X-97972D01*
Y220000D02*
Y229842D01*
X-107126Y220000D02*
X-98563D01*
X-97972D02*
X-89410D01*
X-97972Y230157D02*
Y240000D01*
X-98563Y230157D02*
X-97972D01*
X-98563D02*
Y249843D01*
X-97972D01*
Y240000D02*
Y249843D01*
X-107126Y240000D02*
X-98563D01*
X-97972D02*
X-89410D01*
X-45000Y113563D02*
X-35157D01*
Y112972D02*
Y113563D01*
X-54843Y112972D02*
X-35157D01*
X-54843D02*
Y113563D01*
X-45000D01*
Y104409D02*
Y112972D01*
Y113563D02*
Y122126D01*
X-75000Y157028D02*
X-65158D01*
Y156437D02*
Y157028D01*
X-84842Y156437D02*
X-65158D01*
X-84842D02*
Y157028D01*
X-75000D01*
Y147874D02*
Y156437D01*
Y157028D02*
Y165591D01*
X-125157Y44921D02*
Y65000D01*
X-144843Y44921D02*
Y65000D01*
X-115079Y54843D02*
X-95000D01*
X-115079Y35157D02*
X-95000D01*
X-65158Y44921D02*
Y65000D01*
X-84842Y44921D02*
Y65000D01*
X-145158Y45000D02*
Y65079D01*
X-164842Y45000D02*
Y65079D01*
X-145000Y142224D02*
X-85000D01*
Y177776D01*
X-145000D02*
X-85000D01*
X-145000Y162500D02*
Y177776D01*
Y142224D02*
Y157500D01*
X-136000Y153000D02*
X-94000D01*
X-62000Y34000D02*
Y76000D01*
D11*
X-195000Y208750D02*
X-195957Y208560D01*
X-196768Y208018D01*
X-197310Y207207D01*
X-197500Y206250D01*
X-197310Y205293D01*
X-196768Y204482D01*
X-195957Y203940D01*
X-195000Y203750D01*
X-235000Y217500D02*
X-195000D01*
X-235000Y195000D02*
Y217500D01*
Y195000D02*
X-195000D01*
Y203750D01*
Y208750D02*
Y217500D01*
X-136000Y153000D02*
Y167000D01*
X-94000Y153000D02*
Y167000D01*
X-136000D02*
X-94000D01*
X-48000Y34000D02*
Y76000D01*
X-62000Y34000D02*
X-48000D01*
X-62000Y76000D02*
X-48000D01*
X-16998Y210999D02*
Y205001D01*
X-13999D01*
X-12999Y206001D01*
Y207000D01*
X-13999Y208000D01*
X-16998D01*
X-13999D01*
X-12999Y209000D01*
Y209999D01*
X-13999Y210999D01*
X-16998D01*
X-11000D02*
X-7001D01*
X-9000D01*
Y205001D01*
X-5002D02*
X-3002D01*
X-4002D01*
Y210999D01*
X-5002Y209999D01*
X-238997Y173999D02*
Y168001D01*
X-235998D01*
X-234999Y169001D01*
Y170000D01*
X-235998Y171000D01*
X-238997D01*
X-235998D01*
X-234999Y172000D01*
Y172999D01*
X-235998Y173999D01*
X-238997D01*
X-232999D02*
X-229001D01*
X-231000D01*
Y168001D01*
X-223003D02*
X-227001D01*
X-223003Y172000D01*
Y172999D01*
X-224002Y173999D01*
X-226002D01*
X-227001Y172999D01*
X-60999Y28999D02*
X-61998Y29999D01*
X-63998D01*
X-64997Y28999D01*
Y28000D01*
X-63998Y27000D01*
X-61998D01*
X-60999Y26000D01*
Y25001D01*
X-61998Y24001D01*
X-63998D01*
X-64997Y25001D01*
X-58999Y29999D02*
Y24001D01*
X-57000Y26000D01*
X-55001Y24001D01*
Y29999D01*
X-49003Y24001D02*
X-53001D01*
X-49003Y28000D01*
Y28999D01*
X-50002Y29999D01*
X-52002D01*
X-53001Y28999D01*
X-18999Y43999D02*
Y38001D01*
X-16000D01*
X-15000Y39001D01*
Y42999D01*
X-16000Y43999D01*
X-18999D01*
X-13001Y38001D02*
X-11001D01*
X-12001D01*
Y43999D01*
X-13001Y42999D01*
X-39998Y75001D02*
Y80999D01*
X-36999D01*
X-36000Y79999D01*
Y78000D01*
X-36999Y77000D01*
X-39998D01*
X-37999D02*
X-36000Y75001D01*
X-34000Y79999D02*
X-33001Y80999D01*
X-31001D01*
X-30002Y79999D01*
Y79000D01*
X-31001Y78000D01*
X-32001D01*
X-31001D01*
X-30002Y77000D01*
Y76001D01*
X-31001Y75001D01*
X-33001D01*
X-34000Y76001D01*
X-46998Y52999D02*
Y48001D01*
X-45999Y47001D01*
X-43999D01*
X-43000Y48001D01*
Y52999D01*
X-41000Y51999D02*
X-40001Y52999D01*
X-38001D01*
X-37002Y51999D01*
Y51000D01*
X-38001Y50000D01*
X-39001D01*
X-38001D01*
X-37002Y49000D01*
Y48001D01*
X-38001Y47001D01*
X-40001D01*
X-41000Y48001D01*
X-75000Y58999D02*
X-75999Y59999D01*
X-77999D01*
X-78998Y58999D01*
Y55001D01*
X-77999Y54001D01*
X-75999D01*
X-75000Y55001D01*
X-73000Y58999D02*
X-72001Y59999D01*
X-70001D01*
X-69002Y58999D01*
Y58000D01*
X-70001Y57000D01*
X-71001D01*
X-70001D01*
X-69002Y56000D01*
Y55001D01*
X-70001Y54001D01*
X-72001D01*
X-73000Y55001D01*
X-108999Y71999D02*
Y70999D01*
X-106999Y69000D01*
X-105000Y70999D01*
Y71999D01*
X-106999Y69000D02*
Y66001D01*
X-103001D02*
X-101001D01*
X-102001D01*
Y71999D01*
X-103001Y70999D01*
X-127998Y30001D02*
Y35999D01*
X-124999D01*
X-124000Y34999D01*
Y33000D01*
X-124999Y32000D01*
X-127998D01*
X-125999D02*
X-124000Y30001D01*
X-119001D02*
Y35999D01*
X-122000Y33000D01*
X-118002D01*
X-108998Y19999D02*
Y14001D01*
X-104999D01*
X-99001Y18999D02*
X-100001Y19999D01*
X-102000D01*
X-103000Y18999D01*
Y18000D01*
X-102000Y17000D01*
X-100001D01*
X-99001Y16000D01*
Y15001D01*
X-100001Y14001D01*
X-102000D01*
X-103000Y15001D01*
X-97002Y14001D02*
X-95002D01*
X-96002D01*
Y19999D01*
X-97002Y18999D01*
X-106000Y49999D02*
X-106999Y50999D01*
X-108999D01*
X-109998Y49999D01*
Y46001D01*
X-108999Y45001D01*
X-106999D01*
X-106000Y46001D01*
X-100002Y45001D02*
X-104000D01*
X-100002Y49000D01*
Y49999D01*
X-101001Y50999D01*
X-103001D01*
X-104000Y49999D01*
X-135000Y56999D02*
X-136000Y57999D01*
X-137999D01*
X-138999Y56999D01*
Y53001D01*
X-137999Y52001D01*
X-136000D01*
X-135000Y53001D01*
X-133001Y52001D02*
X-131001D01*
X-132001D01*
Y57999D01*
X-133001Y56999D01*
X-155000D02*
X-155999Y57999D01*
X-157999D01*
X-158998Y56999D01*
Y53001D01*
X-157999Y52001D01*
X-155999D01*
X-155000Y53001D01*
X-150001Y52001D02*
Y57999D01*
X-153000Y55000D01*
X-149002D01*
X-202999Y41999D02*
X-203999Y42999D01*
X-205998D01*
X-206998Y41999D01*
Y41000D01*
X-205998Y40000D01*
X-203999D01*
X-202999Y39000D01*
Y38001D01*
X-203999Y37001D01*
X-205998D01*
X-206998Y38001D01*
X-201000Y42999D02*
Y37001D01*
X-199000Y39000D01*
X-197001Y37001D01*
Y42999D01*
X-195002Y37001D02*
X-193002D01*
X-194002D01*
Y42999D01*
X-195002Y41999D01*
X-51999Y193999D02*
X-53998D01*
X-52999D01*
Y189001D01*
X-53998Y188001D01*
X-54998D01*
X-55998Y189001D01*
X-50000Y188001D02*
Y193999D01*
X-47001D01*
X-46001Y192999D01*
Y191000D01*
X-47001Y190000D01*
X-50000D01*
X-44002Y188001D02*
X-42002D01*
X-43002D01*
Y193999D01*
X-44002Y192999D01*
X-45998Y247999D02*
Y242001D01*
X-42999D01*
X-42000Y243001D01*
Y246999D01*
X-42999Y247999D01*
X-45998D01*
X-37001Y242001D02*
Y247999D01*
X-40000Y245000D01*
X-36002D01*
X-71998Y247999D02*
Y242001D01*
X-68999D01*
X-68000Y243001D01*
Y246999D01*
X-68999Y247999D01*
X-71998D01*
X-62002D02*
X-66000D01*
Y245000D01*
X-64001Y246000D01*
X-63001D01*
X-62002Y245000D01*
Y243001D01*
X-63001Y242001D01*
X-65001D01*
X-66000Y243001D01*
X-159998Y177465D02*
Y183464D01*
X-156999D01*
X-156000Y182464D01*
Y180465D01*
X-156999Y179465D01*
X-159998D01*
X-157999D02*
X-156000Y177465D01*
X-154000Y182464D02*
X-153001Y183464D01*
X-151001D01*
X-150002Y182464D01*
Y181464D01*
X-151001Y180465D01*
X-150002Y179465D01*
Y178465D01*
X-151001Y177465D01*
X-153001D01*
X-154000Y178465D01*
Y179465D01*
X-153001Y180465D01*
X-154000Y181464D01*
Y182464D01*
X-153001Y180465D02*
X-151001D01*
X-104998Y172999D02*
Y168001D01*
X-103999Y167001D01*
X-101999D01*
X-101000Y168001D01*
Y172999D01*
X-95002D02*
X-99000D01*
Y170000D01*
X-97001Y171000D01*
X-96001D01*
X-95002Y170000D01*
Y168001D01*
X-96001Y167001D01*
X-98001D01*
X-99000Y168001D01*
X-144998Y187999D02*
Y183001D01*
X-143999Y182001D01*
X-141999D01*
X-141000Y183001D01*
Y187999D01*
X-136001Y182001D02*
Y187999D01*
X-139000Y185000D01*
X-135002D01*
X-122998Y203001D02*
Y208999D01*
X-119999D01*
X-119000Y207999D01*
Y206000D01*
X-119999Y205000D01*
X-122998D01*
X-120999D02*
X-119000Y203001D01*
X-117000Y208999D02*
X-113002D01*
Y207999D01*
X-117000Y204001D01*
Y203001D01*
X-108998Y221001D02*
Y226999D01*
X-105999D01*
X-105000Y225999D01*
Y224000D01*
X-105999Y223000D01*
X-108998D01*
X-106999D02*
X-105000Y221001D01*
X-103000Y222001D02*
X-102001Y221001D01*
X-100001D01*
X-99002Y222001D01*
Y225999D01*
X-100001Y226999D01*
X-102001D01*
X-103000Y225999D01*
Y225000D01*
X-102001Y224000D01*
X-99002D01*
X-107498Y241001D02*
Y246999D01*
X-104499D01*
X-103499Y245999D01*
Y244000D01*
X-104499Y243000D01*
X-107498D01*
X-105498D02*
X-103499Y241001D01*
X-101499D02*
X-99500D01*
X-100500D01*
Y246999D01*
X-101499Y245999D01*
X-96501D02*
X-95501Y246999D01*
X-93502D01*
X-92502Y245999D01*
Y242001D01*
X-93502Y241001D01*
X-95501D01*
X-96501Y242001D01*
Y245999D01*
X-194998Y242999D02*
Y241999D01*
X-192999Y240000D01*
X-191000Y241999D01*
Y242999D01*
X-192999Y240000D02*
Y237001D01*
X-185002D02*
X-189000D01*
X-185002Y241000D01*
Y241999D01*
X-186001Y242999D01*
X-188001D01*
X-189000Y241999D01*
X-244400Y83298D02*
Y78300D01*
X-243400Y77300D01*
X-241401D01*
X-240401Y78300D01*
Y83298D01*
X-238402Y77300D02*
X-236403D01*
X-237402D01*
Y83298D01*
X-238402Y82298D01*
X-54200Y137300D02*
Y143298D01*
X-51201D01*
X-50201Y142298D01*
Y140299D01*
X-51201Y139299D01*
X-54200D01*
X-52201D02*
X-50201Y137300D01*
X-48202D02*
X-46203D01*
X-47202D01*
Y143298D01*
X-48202Y142298D01*
X-43204Y137300D02*
X-41204D01*
X-42204D01*
Y143298D01*
X-43204Y142298D01*
X-84200Y180800D02*
Y186798D01*
X-81201D01*
X-80201Y185798D01*
Y183799D01*
X-81201Y182799D01*
X-84200D01*
X-82201D02*
X-80201Y180800D01*
X-78202D02*
X-76203D01*
X-77202D01*
Y186798D01*
X-78202Y185798D01*
X-69205Y180800D02*
X-73204D01*
X-69205Y184799D01*
Y185798D01*
X-70205Y186798D01*
X-72204D01*
X-73204Y185798D01*
X-239400Y138298D02*
Y133300D01*
X-238400Y132300D01*
X-236401D01*
X-235401Y133300D01*
Y138298D01*
X-229403Y132300D02*
X-233402D01*
X-229403Y136299D01*
Y137298D01*
X-230403Y138298D01*
X-232402D01*
X-233402Y137298D01*
X-214200Y175798D02*
Y169800D01*
X-211201D01*
X-210201Y170800D01*
Y174798D01*
X-211201Y175798D01*
X-214200D01*
X-204203Y169800D02*
X-208202D01*
X-204203Y173799D01*
Y174798D01*
X-205203Y175798D01*
X-207202D01*
X-208202Y174798D01*
X-189200Y175798D02*
Y169800D01*
X-186201D01*
X-185201Y170800D01*
Y174798D01*
X-186201Y175798D01*
X-189200D01*
X-183202Y174798D02*
X-182202Y175798D01*
X-180203D01*
X-179203Y174798D01*
Y173799D01*
X-180203Y172799D01*
X-181203D01*
X-180203D01*
X-179203Y171799D01*
Y170800D01*
X-180203Y169800D01*
X-182202D01*
X-183202Y170800D01*
X-234500Y238398D02*
Y233400D01*
X-233500Y232400D01*
X-231501D01*
X-230501Y233400D01*
Y238398D01*
X-224503D02*
X-226503Y237398D01*
X-228502Y235399D01*
Y233400D01*
X-227502Y232400D01*
X-225503D01*
X-224503Y233400D01*
Y234399D01*
X-225503Y235399D01*
X-228502D01*
X-85401Y130398D02*
X-87401D01*
X-86401D01*
Y125400D01*
X-87401Y124400D01*
X-88400D01*
X-89400Y125400D01*
X-83402Y124400D02*
Y130398D01*
X-80403D01*
X-79403Y129398D01*
Y127399D01*
X-80403Y126399D01*
X-83402D01*
X-73405Y124400D02*
X-77404D01*
X-73405Y128399D01*
Y129398D01*
X-74405Y130398D01*
X-76404D01*
X-77404Y129398D01*
M02*
