G04*
G04 #@! TF.GenerationSoftware,Altium Limited,Altium Designer,21.7.2 (23)*
G04*
G04 Layer_Physical_Order=2*
G04 Layer_Color=16711680*
%FSLAX25Y25*%
%MOIN*%
G70*
G04*
G04 #@! TF.SameCoordinates,C51BEDBB-060F-461C-9832-C8CE4485BB52*
G04*
G04*
G04 #@! TF.FilePolarity,Positive*
G04*
G01*
G75*
%ADD11C,0.01000*%
%ADD22C,0.04724*%
%ADD23R,0.07874X0.07874*%
%ADD24C,0.07874*%
%ADD25C,0.09449*%
%ADD26C,0.09055*%
%ADD27R,0.11811X0.11811*%
%ADD28C,0.11811*%
%ADD29C,0.08000*%
%ADD30R,0.08000X0.08000*%
%ADD31R,0.07874X0.07874*%
D11*
X-90437Y110437D02*
Y124563D01*
X-75000Y140000D01*
X-90437Y110437D02*
X-85000Y105000D01*
X-99070Y97000D02*
X-65311D01*
X-145000Y125000D02*
X-131532Y111532D01*
X-113602D01*
X-99070Y97000D01*
X-65311D02*
X-59563Y102748D01*
Y117437D01*
X-58000Y119000D01*
X-55000Y120000D02*
X-25000Y90000D01*
X-56000Y120000D02*
X-55000D01*
X-62000Y123000D02*
X-58000Y119000D01*
X-74000Y123000D02*
X-62000D01*
X-75000Y122000D02*
X-74000Y123000D01*
X-75000Y115000D02*
Y122000D01*
X-46000Y90000D02*
X-25000D01*
X-66000Y70000D02*
X-46000Y90000D01*
X-61000Y125000D02*
X-56000Y120000D01*
X-85000Y115000D02*
X-75000Y125000D01*
X-61000D01*
X-46689Y130000D02*
X-45000D01*
X-185000Y125000D02*
X-166000Y144000D01*
Y163000D01*
X-159563Y140437D02*
X-125437D01*
X-120000Y135000D01*
X-175000Y125000D02*
X-159563Y140437D01*
X-90098Y188563D02*
X-75000Y173465D01*
X-90098Y188563D02*
Y222787D01*
X-112748Y245437D02*
X-90098Y222787D01*
X-134285Y245437D02*
X-112748D01*
X-197722Y182000D02*
X-134285Y245437D01*
X-224500Y182000D02*
X-197722D01*
X-230000Y187500D02*
X-224500Y182000D01*
X-110000Y159000D02*
X-105000Y154000D01*
X-110000Y159000D02*
Y160000D01*
X-105000Y154000D02*
X-69000D01*
X-45000Y130000D01*
X-166000Y163000D02*
X-142000D01*
X-120000Y185000D01*
X-101000Y146000D02*
X-90000Y135000D01*
X-136995Y157000D02*
X-125995Y146000D01*
X-160000Y157000D02*
X-136995D01*
X-125995Y146000D02*
X-101000D01*
X-27437Y120437D02*
Y125902D01*
X-75000Y173465D02*
X-27437Y125902D01*
X-235000Y124000D02*
Y125000D01*
X-223126Y144563D02*
X-193000D01*
Y159103D02*
X-184414Y167689D01*
X-193000Y144563D02*
Y159103D01*
X-184414Y167689D02*
X-155000D01*
X-104535Y194000D02*
X-95535Y203000D01*
X-111000Y194000D02*
X-104535D01*
X-120000Y185000D02*
X-111000Y194000D01*
X-205000Y160000D02*
X-183500Y181500D01*
X-150500D02*
X-129000Y203000D01*
X-183500Y181500D02*
X-150500D01*
X-100000Y160000D02*
X-88465D01*
X-75000Y173465D01*
X-114128Y173561D02*
X-111439D01*
X-100000Y185000D01*
X-130000Y160000D02*
X-126563Y163437D01*
X-124252D01*
X-114128Y173561D01*
X-242437Y130252D02*
X-152689Y220000D01*
X-235500Y179652D02*
Y209500D01*
X-230000Y161740D02*
Y174152D01*
X-235500Y179652D02*
X-230000Y174152D01*
X-235500Y209500D02*
X-220000Y225000D01*
X-152689Y220000D02*
X-115000D01*
X-242437Y121920D02*
Y130252D01*
Y121920D02*
X-228049Y107532D01*
X-127532D01*
X-115000Y95000D01*
Y240000D02*
X-109563Y234563D01*
Y206212D02*
Y234563D01*
X-125338Y190437D02*
X-109563Y206212D01*
X-132252Y190437D02*
X-125338D01*
X-155000Y167689D02*
X-132252Y190437D01*
X-240437Y127252D02*
X-223126Y144563D01*
X-240437Y122748D02*
Y127252D01*
Y122748D02*
X-227221Y109532D01*
X-119532D01*
X-105000Y95000D01*
X-6414Y98586D02*
Y99414D01*
X-27437Y120437D02*
X-6414Y99414D01*
X-45000Y60000D02*
X-6414Y98586D01*
X-55000Y60000D02*
X-45000D01*
X-125000Y95000D02*
X-109563Y79563D01*
X-115000Y16838D02*
X-109563Y22275D01*
Y79563D01*
X-115000Y10000D02*
Y16838D01*
X-202500Y82500D02*
X-192500D01*
X-180000Y70000D01*
X-215000Y95000D02*
X-202500Y82500D01*
X-230437Y100437D02*
X-225000Y95000D01*
X-239558Y100437D02*
X-230437D01*
X-248000Y91995D02*
X-239558Y100437D01*
X-248000Y8162D02*
Y91995D01*
Y8162D02*
X-244558Y4721D01*
X-185437D01*
X-180000Y10158D01*
X-71000Y28500D02*
X-66000Y33500D01*
Y70000D01*
X-71000Y7000D02*
Y28500D01*
X-75000Y3000D02*
X-71000Y7000D01*
X-122000Y3000D02*
X-75000D01*
X-135000Y16000D02*
X-122000Y3000D01*
X-192890Y16000D02*
X-135000D01*
X-200394Y23504D02*
X-192890Y16000D01*
X-210000Y23504D02*
X-200394D01*
X-244000Y86000D02*
X-235000Y95000D01*
X-245000Y86000D02*
X-244000D01*
X-246000Y85000D02*
X-245000Y86000D01*
X-246000Y63000D02*
Y85000D01*
X-238000Y55000D02*
X-210000D01*
X-246000Y63000D02*
X-238000Y55000D01*
D22*
X-200000Y240000D02*
D03*
X-205906D02*
D03*
D23*
X-60000Y15000D02*
D03*
X-65000Y115000D02*
D03*
X-235000Y95000D02*
D03*
X-240000Y10158D02*
D03*
X-140000Y135000D02*
D03*
X-130000Y160000D02*
D03*
D24*
X-50000Y15000D02*
D03*
X-40000D02*
D03*
X-10000Y185394D02*
D03*
Y235000D02*
D03*
X-85000Y105000D02*
D03*
X-75000D02*
D03*
X-65000D02*
D03*
X-85000Y115000D02*
D03*
X-75000D02*
D03*
X-45000Y205000D02*
D03*
X-35000D02*
D03*
X-225000Y95000D02*
D03*
X-215000D02*
D03*
X-205000D02*
D03*
X-195000D02*
D03*
X-185000D02*
D03*
X-175000D02*
D03*
X-165000D02*
D03*
X-155000D02*
D03*
X-145000D02*
D03*
X-135000D02*
D03*
X-125000D02*
D03*
X-115000D02*
D03*
X-105000D02*
D03*
X-235000Y125000D02*
D03*
X-225000D02*
D03*
X-215000D02*
D03*
X-205000D02*
D03*
X-195000D02*
D03*
X-185000D02*
D03*
X-175000D02*
D03*
X-165000D02*
D03*
X-155000D02*
D03*
X-145000D02*
D03*
X-135000D02*
D03*
X-125000D02*
D03*
X-115000D02*
D03*
X-105000D02*
D03*
X-180000Y70000D02*
D03*
X-190000D02*
D03*
X-200000D02*
D03*
X-210000D02*
D03*
X-220000D02*
D03*
X-230000D02*
D03*
X-240000D02*
D03*
X-180000Y10158D02*
D03*
X-190000D02*
D03*
X-200000D02*
D03*
X-210000D02*
D03*
X-220000D02*
D03*
X-230000D02*
D03*
X-115000Y25000D02*
D03*
X-85472D02*
D03*
X-10000Y20000D02*
D03*
Y30000D02*
D03*
X-205000Y160000D02*
D03*
Y150000D02*
D03*
X-180000Y160000D02*
D03*
Y150000D02*
D03*
X-40000Y225000D02*
D03*
Y235000D02*
D03*
X-65000Y225000D02*
D03*
Y235000D02*
D03*
X-25000Y56535D02*
D03*
Y90000D02*
D03*
X-81535Y10000D02*
D03*
X-115000D02*
D03*
X-95535Y203000D02*
D03*
X-129000D02*
D03*
X-160000Y157000D02*
D03*
Y190465D02*
D03*
X-81535Y220000D02*
D03*
X-115000D02*
D03*
X-81535Y240000D02*
D03*
X-115000D02*
D03*
X-45000Y130000D02*
D03*
Y96535D02*
D03*
X-75000Y173465D02*
D03*
Y140000D02*
D03*
X-135000Y65000D02*
D03*
Y44921D02*
D03*
X-115079Y45000D02*
D03*
X-95000D02*
D03*
X-75000Y65000D02*
D03*
Y44921D02*
D03*
X-155000Y65079D02*
D03*
Y45000D02*
D03*
X-100000Y185000D02*
D03*
X-110000D02*
D03*
X-120000D02*
D03*
X-130000D02*
D03*
X-90000Y135000D02*
D03*
X-100000D02*
D03*
X-110000D02*
D03*
X-120000D02*
D03*
X-130000D02*
D03*
X-100000Y160000D02*
D03*
X-110000D02*
D03*
X-120000D02*
D03*
X-55000Y60000D02*
D03*
Y50000D02*
D03*
Y40000D02*
D03*
D25*
X-230000Y161740D02*
D03*
Y83000D02*
D03*
D26*
X-95000Y70000D02*
D03*
X-115079D02*
D03*
D27*
X-210000Y23504D02*
D03*
D28*
X-189921D02*
D03*
X-210000Y55000D02*
D03*
X-189921D02*
D03*
D29*
X-230000Y187500D02*
D03*
X-220000D02*
D03*
X-210000D02*
D03*
X-200000D02*
D03*
X-230000Y225000D02*
D03*
X-220000D02*
D03*
X-210000D02*
D03*
D30*
X-200000D02*
D03*
D31*
X-55000Y70000D02*
D03*
M02*
