G04*
G04 #@! TF.GenerationSoftware,Altium Limited,Altium Designer,21.7.2 (23)*
G04*
G04 Layer_Color=16711935*
%FSLAX25Y25*%
%MOIN*%
G70*
G04*
G04 #@! TF.SameCoordinates,0C849742-41F4-41D9-88AD-3FE1B0ACC188*
G04*
G04*
G04 #@! TF.FilePolarity,Negative*
G04*
G01*
G75*
%ADD12C,0.08674*%
%ADD13R,0.08674X0.08674*%
%ADD14C,0.12611*%
%ADD15R,0.12611X0.12611*%
%ADD16C,0.09855*%
%ADD17R,0.08674X0.08674*%
%ADD18C,0.10249*%
%ADD19C,0.05524*%
%ADD20R,0.08800X0.08800*%
%ADD21C,0.08800*%
D12*
X164437Y105098D02*
D03*
X174437D02*
D03*
X184437D02*
D03*
X164437Y115098D02*
D03*
X174437D02*
D03*
X69437Y70098D02*
D03*
X59437D02*
D03*
X49437D02*
D03*
X39437D02*
D03*
X29437D02*
D03*
X19437D02*
D03*
X9437D02*
D03*
X69437Y10256D02*
D03*
X59437D02*
D03*
X49437D02*
D03*
X39437D02*
D03*
X29437D02*
D03*
X19437D02*
D03*
X114437Y65098D02*
D03*
Y45020D02*
D03*
X94437Y65177D02*
D03*
Y45098D02*
D03*
X134358D02*
D03*
X154437D02*
D03*
X174437Y65098D02*
D03*
Y45020D02*
D03*
X194437Y60098D02*
D03*
Y50098D02*
D03*
Y40098D02*
D03*
X239437Y185492D02*
D03*
Y235098D02*
D03*
X90000Y23000D02*
D03*
X120000D02*
D03*
X24437Y95098D02*
D03*
X34437D02*
D03*
X44437D02*
D03*
X54437D02*
D03*
X64437D02*
D03*
X74437D02*
D03*
X84437D02*
D03*
X94437D02*
D03*
X104437D02*
D03*
X114437D02*
D03*
X124437D02*
D03*
X134437D02*
D03*
X144437D02*
D03*
X14437Y125098D02*
D03*
X24437D02*
D03*
X34437D02*
D03*
X44437D02*
D03*
X54437D02*
D03*
X64437D02*
D03*
X74437D02*
D03*
X84437D02*
D03*
X94437D02*
D03*
X104437D02*
D03*
X114437D02*
D03*
X124437D02*
D03*
X134437D02*
D03*
X144437D02*
D03*
X224437Y56634D02*
D03*
Y90098D02*
D03*
X151947Y242465D02*
D03*
Y209000D02*
D03*
X89437Y157098D02*
D03*
Y190563D02*
D03*
X130473Y242000D02*
D03*
Y208535D02*
D03*
X109000Y242000D02*
D03*
Y208535D02*
D03*
X204437Y130098D02*
D03*
Y96634D02*
D03*
X175631Y173563D02*
D03*
Y140098D02*
D03*
X169000Y19000D02*
D03*
X135535D02*
D03*
X69000Y227000D02*
D03*
Y193535D02*
D03*
X117000Y164000D02*
D03*
X127000D02*
D03*
X137000D02*
D03*
X204437Y205098D02*
D03*
X214437D02*
D03*
X119000Y145000D02*
D03*
X129000D02*
D03*
X139000D02*
D03*
X149000D02*
D03*
X159000D02*
D03*
X119000Y195000D02*
D03*
X129000D02*
D03*
X139000D02*
D03*
X149000D02*
D03*
X209437Y15098D02*
D03*
X199437D02*
D03*
X239437Y20098D02*
D03*
Y30098D02*
D03*
X44437Y160098D02*
D03*
Y150098D02*
D03*
X69437Y160098D02*
D03*
Y150098D02*
D03*
X209437Y225098D02*
D03*
Y235098D02*
D03*
X184437Y225098D02*
D03*
Y235098D02*
D03*
D13*
Y115098D02*
D03*
X9437Y10256D02*
D03*
X14437Y95098D02*
D03*
X147000Y164000D02*
D03*
X109000Y145000D02*
D03*
X189437Y15098D02*
D03*
D14*
X59516Y55098D02*
D03*
X39437D02*
D03*
X59516Y23602D02*
D03*
D15*
X39437D02*
D03*
D16*
X134358Y70098D02*
D03*
X154437D02*
D03*
D17*
X194437D02*
D03*
D18*
X19437Y161839D02*
D03*
Y83098D02*
D03*
D19*
X49437Y240098D02*
D03*
X43532D02*
D03*
D20*
X49437Y225098D02*
D03*
D21*
X39437D02*
D03*
X29437D02*
D03*
X19437D02*
D03*
X49437Y187598D02*
D03*
X39437D02*
D03*
X29437D02*
D03*
X19437D02*
D03*
M02*
