G04*
G04 #@! TF.GenerationSoftware,Altium Limited,Altium Designer,21.7.2 (23)*
G04*
G04 Layer_Color=65535*
%FSLAX25Y25*%
%MOIN*%
G70*
G04*
G04 #@! TF.SameCoordinates,0C849742-41F4-41D9-88AD-3FE1B0ACC188*
G04*
G04*
G04 #@! TF.FilePolarity,Positive*
G04*
G01*
G75*
%ADD10C,0.00787*%
%ADD11C,0.01000*%
D10*
X189437Y112598D02*
X188480Y112408D01*
X187669Y111866D01*
X187127Y111055D01*
X186937Y110098D01*
X187127Y109142D01*
X187669Y108331D01*
X188480Y107789D01*
X189437Y107598D01*
X4437Y37677D02*
X5394Y37868D01*
X6205Y38409D01*
X6747Y39220D01*
X6937Y40177D01*
X6747Y41134D01*
X6205Y41945D01*
X5394Y42487D01*
X4437Y42677D01*
X29398Y34331D02*
X30377Y34427D01*
X31319Y34713D01*
X32186Y35177D01*
X32947Y35801D01*
X33571Y36562D01*
X34035Y37429D01*
X34321Y38371D01*
X34417Y39350D01*
X34321Y40330D01*
X34035Y41271D01*
X33571Y42139D01*
X32947Y42900D01*
X32186Y43524D01*
X31319Y43988D01*
X30377Y44274D01*
X29398Y44370D01*
X124279Y65098D02*
X124229Y66094D01*
X124078Y67080D01*
X123828Y68045D01*
X123482Y68980D01*
X123043Y69875D01*
X122515Y70721D01*
X121905Y71510D01*
X121218Y72232D01*
X120462Y72882D01*
X119643Y73451D01*
X118772Y73935D01*
X117855Y74328D01*
X116904Y74627D01*
X115927Y74827D01*
X114936Y74928D01*
X113938D01*
X112947Y74827D01*
X111970Y74627D01*
X111019Y74328D01*
X110102Y73935D01*
X109231Y73451D01*
X108412Y72882D01*
X107656Y72232D01*
X106969Y71510D01*
X106359Y70721D01*
X105831Y69875D01*
X105392Y68980D01*
X105046Y68045D01*
X104796Y67080D01*
X104645Y66094D01*
X104595Y65098D01*
Y45020D02*
X104645Y44024D01*
X104796Y43038D01*
X105046Y42073D01*
X105392Y41138D01*
X105831Y40243D01*
X106359Y39397D01*
X106969Y38609D01*
X107656Y37886D01*
X108412Y37236D01*
X109231Y36667D01*
X110102Y36183D01*
X111019Y35790D01*
X111970Y35491D01*
X112947Y35291D01*
X113938Y35190D01*
X114936D01*
X115928Y35291D01*
X116904Y35491D01*
X117855Y35790D01*
X118772Y36183D01*
X119643Y36667D01*
X120462Y37236D01*
X121218Y37886D01*
X121905Y38609D01*
X122515Y39397D01*
X123043Y40243D01*
X123482Y41138D01*
X123828Y42073D01*
X124078Y43038D01*
X124229Y44024D01*
X124279Y45020D01*
X104279Y65177D02*
X104229Y66173D01*
X104078Y67158D01*
X103828Y68124D01*
X103482Y69059D01*
X103043Y69954D01*
X102515Y70800D01*
X101905Y71588D01*
X101218Y72311D01*
X100462Y72960D01*
X99643Y73530D01*
X98772Y74014D01*
X97855Y74407D01*
X96904Y74705D01*
X95927Y74906D01*
X94936Y75007D01*
X93938D01*
X92947Y74906D01*
X91970Y74705D01*
X91019Y74407D01*
X90102Y74014D01*
X89231Y73530D01*
X88412Y72960D01*
X87656Y72311D01*
X86969Y71588D01*
X86359Y70800D01*
X85831Y69954D01*
X85392Y69059D01*
X85046Y68124D01*
X84796Y67158D01*
X84645Y66173D01*
X84595Y65177D01*
Y45098D02*
X84645Y44103D01*
X84796Y43117D01*
X85046Y42152D01*
X85392Y41217D01*
X85831Y40322D01*
X86359Y39476D01*
X86969Y38687D01*
X87656Y37965D01*
X88412Y37315D01*
X89231Y36746D01*
X90102Y36262D01*
X91019Y35869D01*
X91970Y35570D01*
X92947Y35369D01*
X93938Y35269D01*
X94936D01*
X95928Y35369D01*
X96904Y35570D01*
X97855Y35869D01*
X98772Y36262D01*
X99643Y36746D01*
X100462Y37315D01*
X101218Y37965D01*
X101905Y38687D01*
X102515Y39476D01*
X103043Y40322D01*
X103482Y41217D01*
X103828Y42152D01*
X104078Y43117D01*
X104229Y44103D01*
X104279Y45098D01*
X134358Y79941D02*
X133362Y79890D01*
X132377Y79739D01*
X131412Y79489D01*
X130477Y79143D01*
X129582Y78704D01*
X128735Y78177D01*
X127947Y77566D01*
X127225Y76880D01*
X126575Y76123D01*
X126005Y75305D01*
X125522Y74433D01*
X125128Y73517D01*
X124830Y72566D01*
X124629Y71589D01*
X124528Y70597D01*
Y69600D01*
X124629Y68608D01*
X124830Y67631D01*
X125128Y66680D01*
X125522Y65764D01*
X126005Y64892D01*
X126575Y64074D01*
X127225Y63317D01*
X127947Y62630D01*
X128736Y62020D01*
X129582Y61493D01*
X130477Y61054D01*
X131412Y60707D01*
X132377Y60457D01*
X133362Y60306D01*
X134358Y60256D01*
X154437D02*
X155433Y60306D01*
X156418Y60457D01*
X157384Y60707D01*
X158318Y61054D01*
X159214Y61493D01*
X160060Y62020D01*
X160848Y62630D01*
X161571Y63317D01*
X162220Y64074D01*
X162790Y64892D01*
X163274Y65764D01*
X163667Y66680D01*
X163965Y67631D01*
X164166Y68608D01*
X164267Y69600D01*
Y70597D01*
X164166Y71589D01*
X163965Y72566D01*
X163667Y73517D01*
X163274Y74433D01*
X162790Y75305D01*
X162220Y76123D01*
X161571Y76880D01*
X160848Y77566D01*
X160060Y78177D01*
X159214Y78704D01*
X158318Y79143D01*
X157384Y79490D01*
X156418Y79739D01*
X155433Y79890D01*
X154437Y79941D01*
X134358Y54941D02*
X133362Y54890D01*
X132377Y54739D01*
X131412Y54489D01*
X130477Y54143D01*
X129582Y53704D01*
X128735Y53177D01*
X127947Y52566D01*
X127225Y51880D01*
X126575Y51123D01*
X126005Y50305D01*
X125522Y49433D01*
X125128Y48517D01*
X124830Y47565D01*
X124629Y46589D01*
X124528Y45597D01*
Y44600D01*
X124629Y43608D01*
X124830Y42631D01*
X125128Y41680D01*
X125522Y40764D01*
X126005Y39892D01*
X126575Y39074D01*
X127225Y38317D01*
X127947Y37630D01*
X128736Y37020D01*
X129582Y36493D01*
X130477Y36054D01*
X131412Y35707D01*
X132377Y35457D01*
X133362Y35306D01*
X134358Y35256D01*
X154437D02*
X155433Y35306D01*
X156418Y35457D01*
X157384Y35707D01*
X158318Y36054D01*
X159214Y36493D01*
X160060Y37020D01*
X160848Y37630D01*
X161571Y38317D01*
X162220Y39074D01*
X162790Y39892D01*
X163274Y40764D01*
X163667Y41680D01*
X163965Y42631D01*
X164166Y43608D01*
X164267Y44600D01*
Y45597D01*
X164166Y46589D01*
X163965Y47565D01*
X163667Y48517D01*
X163274Y49433D01*
X162790Y50305D01*
X162220Y51123D01*
X161571Y51880D01*
X160848Y52566D01*
X160060Y53177D01*
X159214Y53704D01*
X158318Y54143D01*
X157384Y54490D01*
X156418Y54739D01*
X155433Y54890D01*
X154437Y54941D01*
X184280Y65098D02*
X184229Y66094D01*
X184078Y67080D01*
X183828Y68045D01*
X183482Y68980D01*
X183043Y69875D01*
X182515Y70721D01*
X181905Y71510D01*
X181218Y72232D01*
X180462Y72882D01*
X179643Y73451D01*
X178772Y73935D01*
X177855Y74328D01*
X176904Y74627D01*
X175927Y74827D01*
X174935Y74928D01*
X173939D01*
X172947Y74827D01*
X171970Y74627D01*
X171019Y74328D01*
X170102Y73935D01*
X169231Y73451D01*
X168412Y72882D01*
X167656Y72232D01*
X166969Y71510D01*
X166359Y70721D01*
X165831Y69875D01*
X165392Y68980D01*
X165046Y68045D01*
X164796Y67080D01*
X164645Y66094D01*
X164594Y65098D01*
Y45020D02*
X164645Y44024D01*
X164796Y43038D01*
X165046Y42073D01*
X165392Y41138D01*
X165831Y40243D01*
X166359Y39397D01*
X166969Y38609D01*
X167656Y37886D01*
X168412Y37236D01*
X169231Y36667D01*
X170102Y36183D01*
X171019Y35790D01*
X171970Y35491D01*
X172947Y35291D01*
X173939Y35190D01*
X174935D01*
X175927Y35291D01*
X176904Y35491D01*
X177855Y35790D01*
X178772Y36183D01*
X179643Y36667D01*
X180462Y37236D01*
X181218Y37886D01*
X181905Y38609D01*
X182515Y39397D01*
X183043Y40243D01*
X183482Y41138D01*
X183828Y42073D01*
X184078Y43038D01*
X184229Y44024D01*
X184280Y45020D01*
X9437Y107598D02*
X10394Y107789D01*
X11205Y108331D01*
X11747Y109142D01*
X11937Y110098D01*
X11747Y111055D01*
X11205Y111866D01*
X10394Y112408D01*
X9437Y112598D01*
X53509Y240098D02*
X53437Y241098D01*
X53224Y242077D01*
X52874Y243016D01*
X52394Y243896D01*
X51793Y244698D01*
X51084Y245407D01*
X50282Y246008D01*
X49402Y246488D01*
X48463Y246838D01*
X47484Y247051D01*
X46484Y247123D01*
X45485Y247051D01*
X44505Y246838D01*
X43566Y246488D01*
X42687Y246008D01*
X41884Y245407D01*
X41176Y244698D01*
X40575Y243896D01*
X40095Y243016D01*
X39744Y242077D01*
X39531Y241098D01*
X39460Y240098D01*
X39531Y239099D01*
X39744Y238119D01*
X40095Y237180D01*
X40575Y236301D01*
X41176Y235498D01*
X41884Y234790D01*
X42687Y234189D01*
X43566Y233709D01*
X44505Y233359D01*
X45485Y233146D01*
X46484Y233074D01*
X47484Y233146D01*
X48463Y233359D01*
X49402Y233709D01*
X50282Y234189D01*
X51084Y234790D01*
X51793Y235498D01*
X52394Y236301D01*
X52874Y237180D01*
X53224Y238120D01*
X53437Y239099D01*
X53509Y240098D01*
X104000Y167500D02*
X104957Y167690D01*
X105768Y168232D01*
X106310Y169043D01*
X106500Y170000D01*
X106310Y170957D01*
X105768Y171768D01*
X104957Y172310D01*
X104000Y172500D01*
X159437Y99098D02*
X189437D01*
X159437D02*
Y121098D01*
X189437D01*
Y107598D02*
Y121098D01*
Y99098D02*
Y112598D01*
X4437Y17480D02*
X74437D01*
Y62874D01*
X4437D02*
X74437D01*
X4437Y42677D02*
Y62874D01*
Y17480D02*
Y37677D01*
X29398Y32795D02*
X69555D01*
Y45906D01*
X29398D02*
X69555D01*
X29398Y44370D02*
Y45906D01*
Y32795D02*
Y34331D01*
X124279Y45020D02*
Y65098D01*
X104595Y45020D02*
Y65098D01*
X104279Y45098D02*
Y65177D01*
X84595Y45098D02*
Y65177D01*
X134358Y79941D02*
X154437D01*
X134358Y60256D02*
X154437D01*
X134358Y54941D02*
X154437D01*
X134358Y35256D02*
X154437D01*
X184280Y45020D02*
Y65098D01*
X164594Y45020D02*
Y65098D01*
X187437Y34098D02*
Y76098D01*
X229594Y201929D02*
X239437D01*
X229594D02*
Y218661D01*
X249279D01*
Y201929D02*
Y218661D01*
X239437Y201929D02*
X249279D01*
X229594Y215774D02*
X249279D01*
X239437Y218661D02*
Y227224D01*
Y193366D02*
Y201929D01*
X103563Y23000D02*
X112126D01*
X97874D02*
X106437D01*
X99521Y13158D02*
Y32842D01*
X103563Y23000D02*
Y32842D01*
X106437D01*
Y13158D02*
Y32842D01*
X103563Y13158D02*
X106437D01*
X103563D02*
Y23000D01*
X19437Y144614D02*
X29280D01*
Y100323D02*
Y144614D01*
X9595Y100323D02*
X29280D01*
X9595D02*
Y144614D01*
X19437D01*
X9595Y116727D02*
X29280D01*
X19437Y92547D02*
Y100323D01*
Y144614D02*
Y152390D01*
X9437Y102323D02*
Y107598D01*
Y112598D02*
Y117874D01*
X149437D01*
Y102323D02*
Y117874D01*
X9437Y102323D02*
X149437D01*
X214595Y73071D02*
X224437D01*
X214595D02*
Y73661D01*
X234279D01*
Y73071D02*
Y73661D01*
X224437Y73071D02*
X234279D01*
X224437Y73661D02*
Y82224D01*
Y64508D02*
Y73071D01*
X151947Y226028D02*
X161789D01*
Y225437D02*
Y226028D01*
X142104Y225437D02*
X161789D01*
X142104D02*
Y226028D01*
X151947D01*
Y216874D02*
Y225437D01*
Y226028D02*
Y234591D01*
X79594Y173535D02*
X89437D01*
X79594D02*
Y174126D01*
X99279D01*
Y173535D02*
Y174126D01*
X89437Y173535D02*
X99279D01*
X89437Y174126D02*
Y182689D01*
Y164972D02*
Y173535D01*
X130473Y225563D02*
X140316D01*
Y224972D02*
Y225563D01*
X120631Y224972D02*
X140316D01*
X120631D02*
Y225563D01*
X130473D01*
Y216409D02*
Y224972D01*
Y225563D02*
Y234126D01*
X109000Y225563D02*
X118842D01*
Y224972D02*
Y225563D01*
X99158Y224972D02*
X118842D01*
X99158D02*
Y225563D01*
X109000D01*
Y216409D02*
Y224972D01*
Y225563D02*
Y234126D01*
X204437Y113661D02*
X214280D01*
Y113071D02*
Y113661D01*
X194595Y113071D02*
X214280D01*
X194595D02*
Y113661D01*
X204437D01*
Y104508D02*
Y113071D01*
Y113661D02*
Y122224D01*
X175631Y157126D02*
X185473D01*
Y156535D02*
Y157126D01*
X165788Y156535D02*
X185473D01*
X165788D02*
Y157126D01*
X175631D01*
Y147972D02*
Y156535D01*
Y157126D02*
Y165689D01*
X152563Y9157D02*
Y19000D01*
X151972Y9157D02*
X152563D01*
X151972D02*
Y28842D01*
X152563D01*
Y19000D02*
Y28842D01*
X143409Y19000D02*
X151972D01*
X152563D02*
X161126D01*
X69000Y210563D02*
X78843D01*
Y209972D02*
Y210563D01*
X59158Y209972D02*
X78843D01*
X59158D02*
Y210563D01*
X69000D01*
Y201409D02*
Y209972D01*
Y210563D02*
Y219126D01*
X194595Y214941D02*
X204437D01*
X194595Y195256D02*
Y214941D01*
Y195256D02*
X204437D01*
X214437Y214941D02*
X224279D01*
Y195256D02*
Y214941D01*
X214437Y195256D02*
X224279D01*
X204437Y214941D02*
X214437D01*
X204437Y195256D02*
X214437D01*
X104000Y152224D02*
Y167500D01*
Y172500D02*
Y187776D01*
X164000D01*
Y152224D02*
Y187776D01*
X104000Y152224D02*
X164000D01*
X184437Y8098D02*
Y22098D01*
X213437Y8098D02*
X214437Y8232D01*
X184437Y8098D02*
X213437D01*
X214437Y8232D02*
Y22098D01*
X184437D02*
X214437D01*
X229594Y36535D02*
X239437D01*
X229594Y13661D02*
Y36535D01*
Y13661D02*
X249279D01*
Y36535D01*
X239437D02*
X249279D01*
X229594Y30577D02*
X249279D01*
X239437Y13661D02*
Y22224D01*
Y27972D02*
Y36535D01*
X44437Y143661D02*
X54280D01*
Y166535D01*
X34595D02*
X54280D01*
X34595Y143661D02*
Y166535D01*
Y143661D02*
X44437D01*
X34595Y149619D02*
X54280D01*
X44437Y157972D02*
Y166535D01*
Y143661D02*
Y152224D01*
X69437Y143661D02*
X79280D01*
Y166535D01*
X59595D02*
X79280D01*
X59595Y143661D02*
Y166535D01*
Y143661D02*
X69437D01*
X59595Y149619D02*
X79280D01*
X69437Y157972D02*
Y166535D01*
Y143661D02*
Y152224D01*
X199594Y241535D02*
X209437D01*
X199594Y218661D02*
Y241535D01*
Y218661D02*
X219280D01*
Y241535D01*
X209437D02*
X219280D01*
X199594Y235577D02*
X219280D01*
X209437Y218661D02*
Y227224D01*
Y232972D02*
Y241535D01*
X174594D02*
X184437D01*
X174594Y218661D02*
Y241535D01*
Y218661D02*
X194280D01*
Y241535D01*
X184437D02*
X194280D01*
X174594Y235577D02*
X194280D01*
X184437Y218661D02*
Y227224D01*
Y232972D02*
Y241535D01*
D11*
X54437Y208848D02*
X53480Y208658D01*
X52669Y208116D01*
X52127Y207305D01*
X51937Y206348D01*
X52127Y205392D01*
X52669Y204581D01*
X53480Y204039D01*
X54437Y203848D01*
X201437Y34098D02*
Y76098D01*
X187437Y34098D02*
X201437D01*
X187437Y76098D02*
X201437D01*
X54437Y208848D02*
Y217598D01*
Y195098D02*
Y203848D01*
X14437Y195098D02*
X54437D01*
X14437D02*
Y217598D01*
X54437D01*
X158001Y93999D02*
X156002D01*
X157002D01*
Y89001D01*
X156002Y88001D01*
X155002D01*
X154003Y89001D01*
X160001Y88001D02*
Y93999D01*
X163000D01*
X163999Y92999D01*
Y91000D01*
X163000Y90000D01*
X160001D01*
X169997Y88001D02*
X165999D01*
X169997Y92000D01*
Y92999D01*
X168998Y93999D01*
X166998D01*
X165999Y92999D01*
X181000Y123000D02*
Y125999D01*
X182000Y124999D01*
X182999Y125999D01*
Y123000D01*
X183999Y125999D02*
X184999D01*
X184499D01*
Y123000D01*
X183999D01*
X184999D01*
X188498Y125499D02*
X187998Y125999D01*
X186998D01*
X186498Y125499D01*
Y124999D01*
X186998Y124499D01*
X187998D01*
X188498Y124000D01*
Y123500D01*
X187998Y123000D01*
X186998D01*
X186498Y123500D01*
X190997Y125999D02*
X189997D01*
X189497Y125499D01*
Y123500D01*
X189997Y123000D01*
X190997D01*
X191497Y123500D01*
Y125499D01*
X190997Y125999D01*
X5000Y83398D02*
Y78400D01*
X6000Y77400D01*
X7999D01*
X8999Y78400D01*
Y83398D01*
X10998Y77400D02*
X12997D01*
X11998D01*
Y83398D01*
X10998Y82398D01*
X46438Y42098D02*
X45438Y43097D01*
X43439D01*
X42439Y42098D01*
Y41098D01*
X43439Y40098D01*
X45438D01*
X46438Y39099D01*
Y38099D01*
X45438Y37099D01*
X43439D01*
X42439Y38099D01*
X48437Y43097D02*
Y37099D01*
X50437Y39099D01*
X52436Y37099D01*
Y43097D01*
X54435Y37099D02*
X56435D01*
X55435D01*
Y43097D01*
X54435Y42098D01*
X114437Y57098D02*
X113437Y58097D01*
X111438D01*
X110438Y57098D01*
Y53099D01*
X111438Y52099D01*
X113437D01*
X114437Y53099D01*
X116436Y52099D02*
X118436D01*
X117436D01*
Y58097D01*
X116436Y57098D01*
X94437D02*
X93438Y58097D01*
X91438D01*
X90439Y57098D01*
Y53099D01*
X91438Y52099D01*
X93438D01*
X94437Y53099D01*
X99436Y52099D02*
Y58097D01*
X96437Y55098D01*
X100435D01*
X140438Y72097D02*
Y71098D01*
X142438Y69098D01*
X144437Y71098D01*
Y72097D01*
X142438Y69098D02*
Y66099D01*
X146436D02*
X148436D01*
X147436D01*
Y72097D01*
X146436Y71098D01*
X143437Y50098D02*
X142438Y51097D01*
X140438D01*
X139439Y50098D01*
Y46099D01*
X140438Y45099D01*
X142438D01*
X143437Y46099D01*
X149435Y45099D02*
X145437D01*
X149435Y49098D01*
Y50098D01*
X148436Y51097D01*
X146436D01*
X145437Y50098D01*
X174437Y59098D02*
X173438Y60097D01*
X171438D01*
X170439Y59098D01*
Y55099D01*
X171438Y54099D01*
X173438D01*
X174437Y55099D01*
X176437Y59098D02*
X177436Y60097D01*
X179436D01*
X180435Y59098D01*
Y58098D01*
X179436Y57098D01*
X178436D01*
X179436D01*
X180435Y56099D01*
Y55099D01*
X179436Y54099D01*
X177436D01*
X176437Y55099D01*
X202439Y53097D02*
Y48099D01*
X203438Y47099D01*
X205438D01*
X206437Y48099D01*
Y53097D01*
X208437Y52098D02*
X209436Y53097D01*
X211436D01*
X212435Y52098D01*
Y51098D01*
X211436Y50098D01*
X210436D01*
X211436D01*
X212435Y49099D01*
Y48099D01*
X211436Y47099D01*
X209436D01*
X208437Y48099D01*
X70502Y213001D02*
Y218999D01*
X73501D01*
X74501Y217999D01*
Y216000D01*
X73501Y215000D01*
X70502D01*
X72502D02*
X74501Y213001D01*
X76500D02*
X78500D01*
X77500D01*
Y218999D01*
X76500Y217999D01*
X81499D02*
X82499Y218999D01*
X84498D01*
X85498Y217999D01*
Y217000D01*
X84498Y216000D01*
X83498D01*
X84498D01*
X85498Y215000D01*
Y214001D01*
X84498Y213001D01*
X82499D01*
X81499Y214001D01*
X154100Y12902D02*
Y18901D01*
X157099D01*
X158099Y17901D01*
Y15902D01*
X157099Y14902D01*
X154100D01*
X156099D02*
X158099Y12902D01*
X163097D02*
Y18901D01*
X160098Y15902D01*
X164097D01*
X104002Y197999D02*
Y193001D01*
X105001Y192001D01*
X107001D01*
X108000Y193001D01*
Y197999D01*
X112999Y192001D02*
Y197999D01*
X110000Y195000D01*
X113998D01*
X54439Y243097D02*
Y242098D01*
X56438Y240098D01*
X58437Y242098D01*
Y243097D01*
X56438Y240098D02*
Y237099D01*
X64435D02*
X60437D01*
X64435Y241098D01*
Y242098D01*
X63436Y243097D01*
X61436D01*
X60437Y242098D01*
X14900Y238498D02*
Y233500D01*
X15900Y232500D01*
X17899D01*
X18899Y233500D01*
Y238498D01*
X24897D02*
X22897Y237498D01*
X20898Y235499D01*
Y233500D01*
X21898Y232500D01*
X23897D01*
X24897Y233500D01*
Y234499D01*
X23897Y235499D01*
X20898D01*
X10000Y138398D02*
Y133400D01*
X11000Y132400D01*
X12999D01*
X13999Y133400D01*
Y138398D01*
X19997Y132400D02*
X15998D01*
X19997Y136399D01*
Y137398D01*
X18997Y138398D01*
X16998D01*
X15998Y137398D01*
X188438Y29098D02*
X187439Y30097D01*
X185439D01*
X184440Y29098D01*
Y28098D01*
X185439Y27098D01*
X187439D01*
X188438Y26099D01*
Y25099D01*
X187439Y24099D01*
X185439D01*
X184440Y25099D01*
X190438Y30097D02*
Y24099D01*
X192437Y26099D01*
X194436Y24099D01*
Y30097D01*
X200434Y24099D02*
X196436D01*
X200434Y28098D01*
Y29098D01*
X199435Y30097D01*
X197435D01*
X196436Y29098D01*
X166394Y180900D02*
Y186898D01*
X169393D01*
X170393Y185898D01*
Y183899D01*
X169393Y182899D01*
X166394D01*
X168393D02*
X170393Y180900D01*
X172392D02*
X174391D01*
X173392D01*
Y186898D01*
X172392Y185898D01*
X181389Y180900D02*
X177390D01*
X181389Y184899D01*
Y185898D01*
X180389Y186898D01*
X178390D01*
X177390Y185898D01*
X195200Y137400D02*
Y143398D01*
X198199D01*
X199199Y142398D01*
Y140399D01*
X198199Y139399D01*
X195200D01*
X197199D02*
X199199Y137400D01*
X201198D02*
X203197D01*
X202198D01*
Y143398D01*
X201198Y142398D01*
X206196Y137400D02*
X208196D01*
X207196D01*
Y143398D01*
X206196Y142398D01*
X107999Y216038D02*
X102001D01*
Y219037D01*
X103001Y220037D01*
X105000D01*
X106000Y219037D01*
Y216038D01*
Y218037D02*
X107999Y220037D01*
Y222036D02*
Y224035D01*
Y223036D01*
X102001D01*
X103001Y222036D01*
Y227034D02*
X102001Y228034D01*
Y230033D01*
X103001Y231033D01*
X106999D01*
X107999Y230033D01*
Y228034D01*
X106999Y227034D01*
X103001D01*
X129472Y214537D02*
X123474D01*
Y217536D01*
X124474Y218536D01*
X126473D01*
X127473Y217536D01*
Y214537D01*
Y216536D02*
X129472Y218536D01*
X128473Y220535D02*
X129472Y221535D01*
Y223534D01*
X128473Y224534D01*
X124474D01*
X123474Y223534D01*
Y221535D01*
X124474Y220535D01*
X125474D01*
X126473Y221535D01*
Y224534D01*
X89439Y177564D02*
Y183562D01*
X92438D01*
X93437Y182562D01*
Y180563D01*
X92438Y179563D01*
X89439D01*
X91438D02*
X93437Y177564D01*
X95437Y182562D02*
X96436Y183562D01*
X98436D01*
X99435Y182562D01*
Y181563D01*
X98436Y180563D01*
X99435Y179563D01*
Y178564D01*
X98436Y177564D01*
X96436D01*
X95437Y178564D01*
Y179563D01*
X96436Y180563D01*
X95437Y181563D01*
Y182562D01*
X96436Y180563D02*
X98436D01*
X151946Y215002D02*
X145948D01*
Y218001D01*
X146948Y219000D01*
X148947D01*
X149947Y218001D01*
Y215002D01*
Y217001D02*
X151946Y219000D01*
X145948Y221000D02*
Y224998D01*
X146948D01*
X150946Y221000D01*
X151946D01*
X209439Y75099D02*
Y81098D01*
X212438D01*
X213437Y80098D01*
Y78098D01*
X212438Y77099D01*
X209439D01*
X211438D02*
X213437Y75099D01*
X215437Y80098D02*
X216436Y81098D01*
X218436D01*
X219435Y80098D01*
Y79098D01*
X218436Y78098D01*
X217436D01*
X218436D01*
X219435Y77099D01*
Y76099D01*
X218436Y75099D01*
X216436D01*
X215437Y76099D01*
X97002Y10999D02*
Y5001D01*
X101001D01*
X106999Y9999D02*
X105999Y10999D01*
X104000D01*
X103000Y9999D01*
Y9000D01*
X104000Y8000D01*
X105999D01*
X106999Y7000D01*
Y6001D01*
X105999Y5001D01*
X104000D01*
X103000Y6001D01*
X108998Y5001D02*
X110998D01*
X109998D01*
Y10999D01*
X108998Y9999D01*
X197438Y194097D02*
X195439D01*
X196438D01*
Y189099D01*
X195439Y188099D01*
X194439D01*
X193439Y189099D01*
X199437Y188099D02*
Y194097D01*
X202436D01*
X203436Y193098D01*
Y191098D01*
X202436Y190099D01*
X199437D01*
X205435Y188099D02*
X207435D01*
X206435D01*
Y194097D01*
X205435Y193098D01*
X177439Y248097D02*
Y242099D01*
X180438D01*
X181437Y243099D01*
Y247098D01*
X180438Y248097D01*
X177439D01*
X187435D02*
X183437D01*
Y245098D01*
X185436Y246098D01*
X186436D01*
X187435Y245098D01*
Y243099D01*
X186436Y242099D01*
X184436D01*
X183437Y243099D01*
X203439Y248097D02*
Y242099D01*
X206438D01*
X207437Y243099D01*
Y247098D01*
X206438Y248097D01*
X203439D01*
X212436Y242099D02*
Y248097D01*
X209437Y245098D01*
X213435D01*
X60200Y175898D02*
Y169900D01*
X63199D01*
X64199Y170900D01*
Y174898D01*
X63199Y175898D01*
X60200D01*
X66198Y174898D02*
X67198Y175898D01*
X69197D01*
X70197Y174898D01*
Y173899D01*
X69197Y172899D01*
X68197D01*
X69197D01*
X70197Y171899D01*
Y170900D01*
X69197Y169900D01*
X67198D01*
X66198Y170900D01*
X35200Y175898D02*
Y169900D01*
X38199D01*
X39199Y170900D01*
Y174898D01*
X38199Y175898D01*
X35200D01*
X45197Y169900D02*
X41198D01*
X45197Y173899D01*
Y174898D01*
X44197Y175898D01*
X42198D01*
X41198Y174898D01*
X230438Y44097D02*
Y38099D01*
X233437D01*
X234437Y39099D01*
Y43098D01*
X233437Y44097D01*
X230438D01*
X236436Y38099D02*
X238436D01*
X237436D01*
Y44097D01*
X236436Y43098D01*
X10440Y174098D02*
Y168099D01*
X13439D01*
X14438Y169099D01*
Y170099D01*
X13439Y171098D01*
X10440D01*
X13439D01*
X14438Y172098D01*
Y173098D01*
X13439Y174098D01*
X10440D01*
X16438D02*
X20436D01*
X18437D01*
Y168099D01*
X26434D02*
X22436D01*
X26434Y172098D01*
Y173098D01*
X25435Y174098D01*
X23435D01*
X22436Y173098D01*
X232439Y211097D02*
Y205099D01*
X235438D01*
X236438Y206099D01*
Y207099D01*
X235438Y208098D01*
X232439D01*
X235438D01*
X236438Y209098D01*
Y210098D01*
X235438Y211097D01*
X232439D01*
X238437D02*
X242436D01*
X240437D01*
Y205099D01*
X244435D02*
X246435D01*
X245435D01*
Y211097D01*
X244435Y210098D01*
M02*
