M48
;Layer_Color=9474304
;FILE_FORMAT=2:4
INCH,TZ
;TYPE=PLATED
T1F00S00C0.0197
T2F00S00C0.0394
T3F00S00C0.0400
T4F00S00C0.0472
T5F00S00C0.0591
%
T01
X4353Y24010
X4944
T02
X944Y1026
X1944
X2944
X3944
X4944
X5944
X6944
X9000Y2300
X9444Y4510
X11444Y4502
X13436Y4510
X15444
X17444Y4502
X16900Y1900
X18944Y1510
X13554Y1900
X12000Y2300
X19944Y1510
X20944
X23944Y2010
Y3010
X19444Y4010
Y5010
Y6010
Y7010
X20444Y9663
X22444Y9010
Y5663
X20444Y13010
Y20510
X21444
X23944Y18549
X17563Y17356
Y14010
X15900Y14500
X14900
X13900
X12900
X11900
X10900
X10444Y12510
X9444
X8444
X7444
X6444
X5444
X4444
X3444
Y9510
X4444
X5444
X6444
X7444
X8444
X9444
X10444
X11444
X12444
X13444
X14444
X16444Y10510
X17444
X18444
Y11510
X17444
X16444
X14444Y12510
X13444
X12444
X11444
X11700Y16400
X12700
X13700
X14700
X14900Y19500
X13900
X12900
X11900
X10900Y20854
X13047
X15195Y20900
X8944Y19056
X6900Y19354
X6944Y16010
Y15010
X4444
Y16010
X8944Y15710
X9444Y6518
X11444Y6510
X13436Y7010
X15444
X17444Y6510
X6944Y7010
X5944
X4944
X3944
X2944
X1944
X944
X1444Y9510
X2444
Y12510
X1444
X6900Y22700
X10900Y24200
X13047
X15195Y24246
X18444Y23510
Y22510
X20944
Y23510
X23944
T03
X3944Y18760
X4944
X2944
X1944
Y22510
X2944
X3944
X4944
T04
X1944Y8310
Y16184
T05
X3944Y2360
X5952
Y5510
X3944
M30
